# Blender v2.79 (sub 0) OBJ File: 'tesseract.blend'
# www.blender.org
o 4Dcubeexample
v -5.000128 -3.750002 3.750042
v -5.000128 -3.750000 -3.749960
v -5.000128 -5.000000 -4.999960
v -5.000128 3.750000 3.750044
v -5.000128 5.000000 5.000044
v -5.000128 5.000002 -4.999958
v -5.000128 -5.000002 5.000042
v -5.000128 3.750002 -3.749958
v -3.750128 -3.750002 5.000042
v 4.999874 -5.000002 5.000042
v -3.750128 3.750000 5.000043
v 3.749874 -3.750002 5.000042
v 4.999874 5.000000 5.000044
v 3.749874 3.750000 5.000043
v -3.750128 -5.000001 3.750042
v 3.749874 -5.000001 3.750042
v -3.750128 -5.000000 -3.749960
v 4.999874 -5.000000 -4.999960
v 3.749874 -5.000000 -3.749960
v -3.750128 -3.750000 -4.999959
v 3.749874 -3.750000 -4.999959
v -3.750128 3.750002 -4.999959
v 4.999874 5.000002 -4.999958
v 3.749874 3.750002 -4.999959
v -3.750128 5.000000 3.750044
v -3.750128 5.000001 -3.749958
v 3.749874 5.000000 3.750044
v 3.749874 5.000001 -3.749958
v -3.750128 3.194444 3.750043
v -3.750128 -3.194446 3.750042
v -2.500127 1.750000 1.750043
v -2.500127 2.083333 2.500043
v -1.750127 1.750000 2.500043
v -3.750128 3.750000 3.194488
v -2.500127 2.500000 2.083376
v -1.750127 2.500000 1.750043
v -3.750128 3.750001 -3.194402
v -2.500127 1.750000 -1.749958
v -2.500127 2.500000 -2.083292
v -1.750127 2.500000 -1.749958
v -1.750127 1.750000 -2.499958
v -3.750128 3.194446 -3.749959
v -2.500127 2.083334 -2.499958
v -3.750128 -3.194444 -3.749959
v -3.750128 -3.750001 3.194486
v -3.750128 -3.750000 -3.194404
v -2.500127 -1.750000 -1.749958
v -1.750127 -1.750000 -2.499958
v -2.500127 -2.083333 -2.499958
v -2.500127 -2.500000 -2.083292
v -1.750127 -2.500000 -1.749958
v -2.500127 -2.500000 2.083375
v -1.750127 -2.500000 1.750043
v -2.500127 -1.750000 1.750043
v -1.750127 -1.750000 2.500043
v -2.500127 -2.083334 2.500043
v 4.999874 -3.750002 3.750042
v 4.999874 3.750000 3.750044
v 4.999874 -3.750000 -3.749960
v 4.999874 3.750002 -3.749958
v -3.194572 -3.750002 3.750042
v -2.083461 -2.500000 2.500042
v 3.194318 -3.750002 3.750042
v 1.749874 -1.750000 2.500043
v 2.083207 -2.500000 2.500042
v 1.749874 -2.500000 1.750043
v 2.499874 -2.083334 2.500043
v 3.749874 -3.194446 3.750042
v 2.499874 -1.750000 1.750043
v 3.749874 3.194444 3.750043
v 3.194318 3.750000 3.750044
v -3.194572 3.750000 3.750044
v 2.499874 1.750000 1.750043
v 2.499874 2.083333 2.500043
v 1.749874 1.750000 2.500043
v 1.749874 2.500000 1.750043
v 2.083207 2.500000 2.500043
v -2.083461 2.500000 2.500043
v -3.194572 -3.750000 -3.749960
v -2.083461 -2.500000 -2.499959
v 3.194318 -3.750000 -3.749960
v 3.749874 -3.750000 -3.194404
v 3.749874 -3.750001 3.194486
v 1.749874 -1.750000 -2.499958
v 2.083207 -2.500000 -2.499959
v 1.749874 -2.500000 -1.749958
v 2.499874 -1.750000 -1.749958
v 2.499874 -2.500000 -2.083292
v 2.499874 -2.500000 2.083375
v 3.194318 3.750002 -3.749958
v -3.194572 3.750002 -3.749958
v -2.083461 2.500000 -2.499958
v 1.749874 2.500000 -1.749958
v 2.083207 2.500000 -2.499958
v 1.749874 1.750000 -2.499958
v 2.499874 2.083334 -2.499958
v 3.749874 3.194446 -3.749959
v 2.499874 1.750000 -1.749958
v 3.749874 -3.194444 -3.749959
v 2.499874 -2.083333 -2.499958
v 3.749874 3.750000 3.194488
v 2.499874 2.500000 2.083376
v 3.749874 3.750001 -3.194402
v 2.499874 2.500000 -2.083292
v 1.749874 1.750000 1.750043
v -1.750127 1.750000 1.750043
v -1.750127 -1.750000 1.750043
v -1.750127 1.750000 -1.749958
v -1.750127 -1.750000 -1.749958
v 1.749874 1.750000 -1.749958
v 1.749874 -1.750000 -1.749958
v 1.749874 -1.750000 1.750043
vt 0.000000 0.000000
vt 1.000000 0.000000
vt 1.000000 1.000000
vt 0.000000 0.000000
vt 1.000000 0.000000
vt 1.000000 1.000000
vt 0.000000 0.000000
vt 1.000000 1.000000
vt 0.000000 0.000000
vt 1.000000 0.000000
vt 1.000000 1.000000
vt 1.000000 0.000000
vt 0.000000 0.000000
vt 0.000000 0.000000
vt 1.000000 0.000000
vt 0.000000 0.000000
vt 1.000000 0.000000
vt 1.000000 1.000000
vt 0.000000 0.000000
vt 1.000000 1.000000
vt 0.000000 0.000000
vt 1.000000 0.000000
vt 0.000000 0.000000
vt 0.000000 0.000000
vt 1.000000 1.000000
vt 1.000000 0.000000
vt 1.000000 0.000000
vt 1.000000 1.000000
vt 0.000000 0.000000
vt 1.000000 0.000000
vt 0.000000 0.000000
vt 1.000000 0.000000
vt 0.000000 0.000000
vt 1.000000 0.000000
vt 1.000000 1.000000
vt 1.000000 1.000000
vt 0.000000 0.000000
vt 1.000000 0.000000
vt 1.000000 1.000000
vt 1.000000 0.000000
vt 0.000000 0.000000
vt 0.000000 0.000000
vt 1.000000 0.000000
vt 0.000000 0.000000
vt 1.000000 0.000000
vt 0.000000 0.000000
vt 1.000000 0.000000
vt 1.000000 1.000000
vt 1.000000 1.000000
vt 0.000000 0.000000
vt 1.000000 0.000000
vt 1.000000 1.000000
vt 1.000000 0.000000
vt 0.000000 0.000000
vt 0.000000 0.000000
vt 1.000000 0.000000
vt 0.000000 0.000000
vt 1.000000 1.000000
vt 0.000000 0.000000
vt 1.000000 1.000000
vt 0.000000 0.000000
vt 1.000000 0.000000
vt 0.000000 0.000000
vt 0.000000 0.000000
vt 1.000000 1.000000
vt 1.000000 0.000000
vt 1.000000 0.000000
vt 1.000000 1.000000
vt 0.000000 0.000000
vt 1.000000 0.000000
vt 0.000000 0.000000
vt 1.000000 0.000000
vt 1.000000 0.000000
vt 1.000000 1.000000
vt 1.000000 1.000000
vt 1.000000 0.000000
vt 1.000000 1.000000
vt 1.000000 0.000000
vt 1.000000 0.000000
vt 1.000000 1.000000
vt 0.000000 0.000000
vt 0.000000 0.000000
vt 1.000000 1.000000
vt 1.000000 1.000000
vt 0.000000 0.000000
vt 1.000000 1.000000
vt 0.000000 0.000000
vt 1.000000 0.000000
vt 1.000000 1.000000
vt 1.000000 0.000000
vt 1.000000 1.000000
vt 1.000000 0.000000
vt 1.000000 1.000000
vt 0.000000 0.000000
vt 1.000000 1.000000
vt 1.000000 0.000000
vt 1.000000 1.000000
vt 1.000000 0.000000
vt 0.000000 0.000000
vt 1.000000 0.000000
vt 1.000000 0.000000
vt 0.000000 0.000000
vt 1.000000 0.000000
vt 1.000000 1.000000
vt 1.000000 0.000000
vt 1.000000 1.000000
vt 0.000000 0.000000
vt 1.000000 1.000000
vt 0.000000 0.000000
vt 1.000000 1.000000
vt 0.000000 0.000000
vt 1.000000 1.000000
vt 1.000000 0.000000
vt 1.000000 0.000000
vt 1.000000 0.000000
vt 1.000000 1.000000
vt 0.000000 0.000000
vt 1.000000 0.000000
vt 1.000000 1.000000
vt 0.000000 0.000000
vt 1.000000 1.000000
vt 0.000000 0.000000
vt 1.000000 1.000000
vt 0.000000 0.000000
vt 0.000000 0.000000
vt 1.000000 0.000000
vt 0.000000 0.000000
vt 1.000000 0.000000
vt 1.000000 1.000000
vt 0.000000 0.000000
vt 1.000000 0.000000
vt 1.000000 1.000000
vt 1.000000 0.000000
vt 1.000000 0.000000
vt 1.000000 1.000000
vt 0.000000 0.000000
vt 1.000000 0.000000
vt 1.000000 0.000000
vt 0.000000 0.000000
vt 1.000000 1.000000
vt 0.000000 0.000000
vt 1.000000 0.000000
vt 1.000000 1.000000
vt 0.000000 0.000000
vt 1.000000 0.000000
vt 1.000000 1.000000
vt 0.000000 0.000000
vt 1.000000 0.000000
vt 1.000000 1.000000
vt 1.000000 1.000000
vt 0.000000 0.000000
vt 1.000000 0.000000
vt 1.000000 1.000000
vt 1.000000 1.000000
vt 0.000000 0.000000
vt 1.000000 0.000000
vt 1.000000 0.000000
vt 1.000000 1.000000
vt 0.000000 0.000000
vt 0.000000 0.000000
vt 0.000000 0.000000
vt 1.000000 0.000000
vt 0.000000 0.000000
vt 1.000000 1.000000
vt 0.000000 0.000000
vt 0.000000 0.000000
vt 1.000000 1.000000
vt 0.000000 0.000000
vt 1.000000 1.000000
vt 1.000000 0.000000
vt 1.000000 1.000000
vt 1.000000 1.000000
vt 1.000000 0.000000
vt 0.000000 0.000000
vt 1.000000 0.000000
vt 0.000000 0.000000
vt 1.000000 0.000000
vt 0.000000 0.000000
vt 1.000000 0.000000
vt 1.000000 1.000000
vt 0.000000 0.000000
vt 1.000000 1.000000
vt 0.000000 0.000000
vt 1.000000 1.000000
vt 1.000000 0.000000
vt 1.000000 1.000000
vt 1.000000 0.000000
vt 1.000000 1.000000
vt 1.000000 0.000000
vt 0.000000 0.000000
vt 1.000000 1.000000
vt 0.000000 0.000000
vt 0.000000 0.000000
vt 1.000000 1.000000
vt 0.000000 0.000000
vt 1.000000 1.000000
vt 1.000000 1.000000
vt 1.000000 1.000000
vt 1.000000 0.000000
vt 1.000000 1.000000
vt 0.000000 0.000000
vt 1.000000 1.000000
vt 1.000000 0.000000
vt 1.000000 0.000000
vt 1.000000 1.000000
vt 0.000000 0.000000
vt 1.000000 0.000000
vt 1.000000 1.000000
vt 1.000000 0.000000
vt 0.000000 0.000000
vt 1.000000 0.000000
vt 1.000000 1.000000
vt 0.000000 0.000000
vt 1.000000 0.000000
vt 1.000000 1.000000
vt 1.000000 1.000000
vt 0.000000 0.000000
vt 1.000000 1.000000
vt 0.000000 0.000000
vt 1.000000 1.000000
vt 1.000000 0.000000
vt 1.000000 1.000000
vt 0.000000 0.000000
vt 1.000000 1.000000
vt 0.000000 0.000000
vt 1.000000 1.000000
vt 1.000000 0.000000
vt 1.000000 1.000000
vt 0.000000 0.000000
vt 1.000000 1.000000
vt 0.000000 0.000000
vt 1.000000 1.000000
vt 1.000000 0.000000
vt 0.000000 0.000000
vt 1.000000 0.000000
vt 0.000000 0.000000
vt 0.000000 0.000000
vt 1.000000 1.000000
vt 0.000000 0.000000
vt 1.000000 1.000000
vt 1.000000 0.000000
vt 1.000000 0.000000
vt 0.000000 0.000000
vt 0.000000 0.000000
vt 1.000000 0.000000
vt 1.000000 0.000000
vt 1.000000 1.000000
vt 0.000000 0.000000
vt 1.000000 0.000000
vt 1.000000 1.000000
vt 0.000000 0.000000
vt 1.000000 0.000000
vt 0.000000 0.000000
vt 0.000000 0.000000
vt 1.000000 1.000000
vt 0.000000 0.000000
vt 0.000000 0.000000
vt 1.000000 0.000000
vt 1.000000 0.000000
vt 0.000000 0.000000
vt 1.000000 0.000000
vt 0.000000 0.000000
vt 0.000000 0.000000
vt 0.000000 0.000000
vt 1.000000 0.000000
vt 1.000000 1.000000
vt 1.000000 0.000000
vt 1.000000 0.000000
vt 1.000000 0.000000
vt 1.000000 0.000000
vt 0.000000 0.000000
vt 1.000000 0.000000
vt 1.000000 0.000000
vt 0.000000 0.000000
vt 1.000000 0.000000
vt 0.000000 0.000000
vt 1.000000 1.000000
vt 0.000000 0.000000
vt 0.000000 0.000000
vt 1.000000 1.000000
vt 0.000000 0.000000
vt 1.000000 0.000000
vt 1.000000 0.000000
vt 1.000000 0.000000
vt 0.000000 0.000000
vt 0.000000 0.000000
vt 1.000000 1.000000
vt 0.000000 0.000000
vt 1.000000 1.000000
vt 1.000000 0.000000
vt 1.000000 0.000000
vt 1.000000 1.000000
vt 0.000000 0.000000
vt 0.000000 0.000000
vt 1.000000 0.000000
vt 1.000000 0.000000
vt 1.000000 0.000000
vt 1.000000 1.000000
vt 1.000000 1.000000
vt 1.000000 1.000000
vt 0.000000 0.000000
vt 1.000000 1.000000
vt 1.000000 1.000000
vt 1.000000 1.000000
vt 1.000000 0.000000
vt 1.000000 1.000000
vt 1.000000 1.000000
vt 0.000000 0.000000
vt 1.000000 0.000000
vt 1.000000 1.000000
vt 1.000000 1.000000
vt 1.000000 0.000000
vt 1.000000 1.000000
vt 1.000000 0.000000
vn -1.0000 -0.0000 0.0000
vn -0.0000 -0.0000 1.0000
vn 0.0000 -1.0000 -0.0000
vn -0.0000 0.0000 -1.0000
vn -0.0000 1.0000 0.0000
vn -0.3763 -0.8466 0.3763
vn -0.3763 0.3763 -0.8466
vn -0.3763 0.3763 0.8466
vn -0.3763 -0.8466 -0.3763
vn -0.3763 0.8466 -0.3763
vn -0.3763 -0.3763 0.8466
vn -0.3763 -0.3763 -0.8466
vn -0.3763 0.8466 0.3763
vn 1.0000 0.0000 0.0000
vn 0.8466 -0.3763 0.3763
vn -0.8466 -0.3763 0.3763
vn 0.3763 0.8466 0.3763
vn 0.3763 -0.8466 0.3763
vn -0.8466 0.3763 0.3763
vn 0.8466 0.3763 0.3763
vn 0.8466 -0.3763 -0.3763
vn -0.8466 -0.3763 -0.3763
vn 0.3763 -0.3763 0.8466
vn 0.3763 -0.3763 -0.8466
vn 0.8466 0.3763 -0.3763
vn -0.8466 0.3763 -0.3763
vn 0.3763 -0.8466 -0.3763
vn 0.3763 0.8466 -0.3763
vn 0.3763 0.3763 -0.8466
vn 0.3763 0.3763 0.8466
s 1
f 1/1/1 2/2/1 3/3/1
f 4/4/1 5/5/1 6/6/1
f 7/7/1 5/5/1 4/8/1
f 8/9/1 4/10/1 6/6/1
f 7/7/1 4/10/1 1/11/1
f 7/7/1 1/12/1 3/3/1
f 3/13/1 2/2/1 6/6/1
f 2/14/1 8/15/1 6/6/1
f 9/16/2 7/17/2 10/18/2
f 11/19/2 5/5/2 9/20/2
f 12/21/2 9/22/2 10/18/2
f 5/23/2 7/17/2 9/20/2
f 13/24/2 5/5/2 11/25/2
f 13/24/2 14/26/2 10/18/2
f 13/24/2 11/27/2 14/28/2
f 14/29/2 12/30/2 10/18/2
f 15/31/3 16/32/3 10/18/3
f 17/33/3 3/34/3 18/35/3
f 7/7/3 3/34/3 17/36/3
f 19/37/3 17/38/3 18/35/3
f 7/7/3 17/38/3 15/39/3
f 7/7/3 15/40/3 10/18/3
f 10/41/3 16/32/3 18/35/3
f 16/42/3 19/43/3 18/35/3
f 20/44/4 21/45/4 18/35/4
f 22/46/4 6/47/4 23/48/4
f 3/13/4 6/47/4 22/49/4
f 24/50/4 22/51/4 23/48/4
f 3/13/4 22/51/4 20/52/4
f 3/13/4 20/53/4 18/35/4
f 18/54/4 21/45/4 23/48/4
f 21/55/4 24/56/4 23/48/4
f 25/57/5 5/5/5 13/58/5
f 26/59/5 6/47/5 25/60/5
f 27/61/5 25/62/5 13/58/5
f 6/63/5 5/5/5 25/60/5
f 23/64/5 6/47/5 26/65/5
f 23/64/5 28/66/5 13/58/5
f 23/64/5 26/67/5 28/68/5
f 28/69/5 27/70/5 13/58/5
f 29/71/4 30/72/4 4/8/4
f 4/4/4 30/72/4 1/11/4
f 4/4/6 31/73/6 29/74/6
f 29/71/6 31/73/6 32/75/6
f 29/71/6 32/76/6 33/77/6
f 29/71/6 33/78/6 11/25/6
f 4/4/7 34/79/7 31/80/7
f 31/81/7 34/79/7 25/60/7
f 35/82/7 25/62/7 36/83/7
f 31/81/7 25/62/7 35/84/7
f 37/85/3 34/79/3 8/86/3
f 8/9/3 34/79/3 4/8/3
f 38/87/8 39/88/8 26/65/8
f 26/59/8 39/88/8 40/89/8
f 38/87/8 37/90/8 8/86/8
f 38/87/8 26/67/8 37/91/8
f 22/46/9 41/92/9 42/93/9
f 42/94/9 41/92/9 43/95/9
f 42/94/9 43/96/9 38/97/9
f 42/94/9 38/98/9 8/86/9
f 44/99/2 42/100/2 8/86/2
f 2/14/2 44/101/2 8/86/2
f 45/102/5 46/103/5 2/104/5
f 1/1/5 45/105/5 2/104/5
f 44/99/10 2/2/10 47/106/10
f 48/107/10 44/101/10 49/108/10
f 49/109/10 44/101/10 47/106/10
f 20/44/10 44/101/10 48/110/10
f 47/111/11 2/2/11 46/112/11
f 17/33/11 47/113/11 46/112/11
f 17/33/11 50/114/11 47/106/11
f 17/33/11 51/115/11 50/116/11
f 52/117/12 53/118/12 15/39/12
f 52/117/12 15/40/12 54/119/12
f 15/31/12 45/105/12 54/119/12
f 45/102/12 1/12/12 54/119/12
f 30/120/13 9/22/13 55/121/13
f 54/122/13 30/72/13 56/123/13
f 56/124/13 30/72/13 55/121/13
f 1/1/13 30/72/13 54/119/13
f 57/125/14 10/126/14 18/35/14
f 58/127/14 13/128/14 57/129/14
f 59/130/14 57/131/14 18/35/14
f 13/24/14 10/126/14 57/129/14
f 23/64/14 13/128/14 58/132/14
f 23/64/14 60/133/14 18/35/14
f 23/64/14 58/134/14 60/135/14
f 60/136/14 59/137/14 18/35/14
f 30/120/14 29/138/14 11/25/14
f 9/16/14 30/72/14 11/25/14
f 61/139/15 15/40/15 53/140/15
f 55/141/15 61/142/15 62/143/15
f 62/144/15 61/142/15 53/140/15
f 9/16/15 61/142/15 55/121/15
f 12/21/5 63/145/5 61/146/5
f 9/16/5 12/30/5 61/146/5
f 64/147/16 65/148/16 12/149/16
f 12/21/16 65/148/16 66/150/16
f 63/151/16 66/152/16 16/153/16
f 12/21/16 66/152/16 63/154/16
f 67/155/17 64/156/17 12/149/17
f 57/125/17 67/157/17 68/158/17
f 68/159/17 67/157/17 12/149/17
f 69/160/17 67/157/17 57/129/17
f 70/161/1 68/162/1 14/28/1
f 14/29/1 68/162/1 12/149/1
f 71/163/3 14/26/3 72/164/3
f 72/165/3 14/26/3 11/25/3
f 73/166/18 58/134/18 74/167/18
f 74/168/18 58/134/18 70/169/18
f 74/168/18 70/170/18 14/28/18
f 74/168/18 14/26/18 75/171/18
f 71/163/19 27/70/19 76/172/19
f 71/163/19 76/173/19 14/28/19
f 76/174/19 77/175/19 14/28/19
f 77/176/19 75/177/19 14/28/19
f 72/165/20 11/27/20 33/77/20
f 36/178/20 72/179/20 78/180/20
f 78/181/20 72/179/20 33/77/20
f 25/57/20 72/179/20 36/83/20
f 17/33/14 46/103/14 45/182/14
f 15/31/14 17/38/14 45/182/14
f 51/183/21 17/38/21 79/184/21
f 20/44/21 51/115/21 79/184/21
f 20/44/21 80/185/21 51/186/21
f 20/44/21 48/187/21 80/188/21
f 19/37/2 81/189/2 79/184/2
f 17/33/2 19/43/2 79/184/2
f 82/190/1 19/43/1 83/191/1
f 83/192/1 19/43/1 16/153/1
f 84/193/22 21/45/22 85/194/22
f 85/195/22 21/45/22 81/196/22
f 85/195/22 81/189/22 19/197/22
f 85/195/22 19/43/22 86/198/22
f 19/37/23 82/199/23 87/200/23
f 87/201/23 82/199/23 59/202/23
f 19/37/23 88/203/23 86/198/23
f 19/37/23 87/204/23 88/205/23
f 66/206/24 89/207/24 16/153/24
f 16/42/24 89/207/24 69/208/24
f 83/192/24 69/209/24 57/129/24
f 16/42/24 69/209/24 83/191/24
f 63/151/4 16/32/4 61/146/4
f 61/139/4 16/32/4 15/39/4
f 90/210/3 91/211/3 24/212/3
f 24/50/3 91/211/3 22/49/3
f 20/44/14 22/51/14 42/93/14
f 44/99/14 20/53/14 42/93/14
f 40/213/25 92/214/25 22/49/25
f 22/46/25 92/214/25 41/215/25
f 40/213/25 91/211/25 26/65/25
f 40/213/25 22/51/25 91/216/25
f 93/217/26 28/66/26 94/218/26
f 94/219/26 28/66/26 90/220/26
f 94/219/26 90/221/26 24/212/26
f 94/219/26 24/56/26 95/222/26
f 95/223/27 24/56/27 96/224/27
f 96/225/27 24/56/27 97/226/27
f 96/225/27 97/227/27 60/135/27
f 96/225/27 60/133/27 98/228/27
f 24/50/1 21/45/1 97/226/1
f 97/229/1 21/45/1 99/230/1
f 79/231/5 81/189/5 21/232/5
f 20/44/5 79/233/5 21/232/5
f 100/234/28 87/204/28 59/202/28
f 21/55/28 100/235/28 99/230/28
f 99/236/28 100/235/28 59/202/28
f 84/193/28 100/235/28 21/232/28
f 34/237/14 37/90/14 26/65/14
f 25/57/14 34/79/14 26/65/14
f 71/163/4 72/179/4 27/238/4
f 27/61/4 72/179/4 25/60/4
f 101/239/29 58/134/29 73/240/29
f 101/239/29 73/241/29 27/238/29
f 73/166/29 102/242/29 27/238/29
f 102/243/29 76/173/29 27/238/29
f 103/244/1 101/245/1 28/68/1
f 28/69/1 101/245/1 27/238/1
f 28/69/30 93/246/30 104/247/30
f 98/248/30 28/66/30 104/247/30
f 98/248/30 103/249/30 28/68/30
f 98/248/30 60/133/30 103/250/30
f 91/251/2 90/221/2 28/68/2
f 26/59/2 91/211/2 28/68/2
f 77/176/2 78/252/2 33/77/2
f 75/253/2 77/175/2 33/77/2
f 105/254/3 75/177/3 106/255/3
f 106/256/3 75/177/3 33/77/3
f 107/257/14 106/258/14 33/77/14
f 55/141/14 107/259/14 33/77/14
f 32/260/2 56/261/2 55/121/2
f 33/262/2 32/76/2 55/121/2
f 56/124/1 32/76/1 54/119/1
f 54/122/1 32/76/1 31/80/1
f 106/256/4 107/259/4 31/80/4
f 31/81/4 107/259/4 54/119/4
f 108/263/3 106/258/3 38/97/3
f 38/87/3 106/258/3 31/80/3
f 35/82/1 39/88/1 31/80/1
f 31/81/1 39/88/1 38/97/1
f 39/264/5 35/265/5 36/83/5
f 40/213/5 39/88/5 36/83/5
f 36/178/5 78/252/5 77/266/5
f 76/174/5 36/267/5 77/266/5
f 108/263/14 40/268/14 36/83/14
f 106/256/14 108/269/14 36/83/14
f 76/174/4 105/270/4 36/83/4
f 36/178/4 105/270/4 106/255/4
f 109/271/2 108/269/2 38/97/2
f 47/111/2 109/272/2 38/97/2
f 47/111/1 38/98/1 49/108/1
f 49/109/1 38/98/1 43/95/1
f 94/219/5 92/214/5 40/89/5
f 93/217/5 94/273/5 40/89/5
f 110/274/2 93/246/2 40/89/2
f 108/263/2 110/275/2 40/89/2
f 49/109/4 43/96/4 48/110/4
f 48/107/4 43/96/4 41/215/4
f 95/223/3 110/275/3 41/215/3
f 41/276/3 110/275/3 108/277/3
f 92/278/4 94/273/4 41/215/4
f 41/276/4 94/273/4 95/222/4
f 48/107/14 41/92/14 108/277/14
f 109/271/14 48/187/14 108/277/14
f 80/279/4 48/187/4 85/194/4
f 85/195/4 48/187/4 84/280/4
f 111/281/5 84/282/5 48/110/5
f 109/271/5 111/283/5 48/110/5
f 107/257/5 109/272/5 47/106/5
f 54/122/5 107/259/5 47/106/5
f 52/117/1 54/284/1 50/116/1
f 50/285/1 54/284/1 47/106/1
f 52/117/3 50/114/3 53/140/3
f 53/286/3 50/114/3 51/186/3
f 51/183/14 109/272/14 107/287/14
f 53/286/14 51/115/14 107/287/14
f 86/288/2 111/283/2 109/289/2
f 51/183/2 86/290/2 109/289/2
f 80/279/3 85/291/3 51/186/3
f 51/183/3 85/291/3 86/198/3
f 62/144/3 53/118/3 65/292/3
f 65/293/3 53/118/3 66/150/3
f 112/294/4 66/152/4 107/287/4
f 107/257/4 66/152/4 53/140/4
f 64/147/5 112/295/5 107/287/5
f 55/141/5 64/156/5 107/287/5
f 55/141/2 62/296/2 65/292/2
f 64/147/2 55/297/2 65/292/2
f 58/127/4 57/131/4 70/169/4
f 70/161/4 57/131/4 68/158/4
f 57/125/5 59/137/5 82/298/5
f 83/192/5 57/131/5 82/298/5
f 59/130/2 60/133/2 97/226/2
f 99/236/2 59/137/2 97/226/2
f 60/136/3 58/134/3 103/250/3
f 103/244/3 58/134/3 101/299/3
f 66/206/3 86/290/3 89/300/3
f 89/301/3 86/290/3 88/205/3
f 111/281/1 86/290/1 112/302/1
f 112/294/1 86/290/1 66/150/1
f 105/254/1 112/295/1 75/171/1
f 75/253/1 112/295/1 64/303/1
f 75/253/2 64/156/2 67/304/2
f 74/168/2 75/177/2 67/304/2
f 74/168/14 67/157/14 69/208/14
f 73/166/14 74/305/14 69/208/14
f 73/166/4 69/209/4 105/306/4
f 105/254/4 69/209/4 112/302/4
f 69/160/5 87/204/5 111/307/5
f 112/294/5 69/209/5 111/307/5
f 69/160/14 89/207/14 88/205/14
f 87/201/14 69/209/14 88/205/14
f 104/308/14 102/242/14 73/240/14
f 98/248/14 104/309/14 73/240/14
f 98/248/3 73/241/3 110/310/3
f 110/274/3 73/241/3 105/306/3
f 93/217/1 110/275/1 76/172/1
f 76/174/1 110/275/1 105/306/1
f 93/217/5 76/173/5 102/311/5
f 104/308/5 93/246/5 102/311/5
f 84/193/4 95/312/4 100/313/4
f 100/234/4 95/312/4 96/224/4
f 95/223/1 84/282/1 110/310/1
f 110/274/1 84/282/1 111/307/1
f 87/201/2 98/314/2 110/310/2
f 111/281/2 87/204/2 110/310/2
f 98/248/14 87/204/14 100/313/14
f 96/225/14 98/314/14 100/313/14
